# Blender v2.66 (sub 1) OBJ File: ''
# www.blender.org
mtllib body.mtl
o Sphere.002
v 1.795629 0.258819 -1.825591
v 1.695729 0.500000 -1.825591
v 1.536810 0.707107 -1.825591
v 1.329703 0.866025 -1.825591
v 1.088522 0.965926 -1.825591
v 0.829703 1.000000 -1.825591
v 1.795629 0.224144 -1.955001
v 1.695729 0.433012 -2.075591
v 1.536810 0.612372 -2.179145
v 1.329703 0.750000 -2.258604
v 1.088522 0.836516 -2.308554
v 0.829703 0.866025 -2.325591
v 1.795629 0.129409 -2.049735
v 1.695729 0.250000 -2.258604
v 1.536810 0.353553 -2.437963
v 1.329703 0.433012 -2.575591
v 1.088522 0.482963 -2.662107
v 0.829703 0.500000 -2.691617
v 1.795629 0.000000 -2.084410
v 1.695729 0.000000 -2.325591
v 1.536810 0.000000 -2.532698
v 1.329703 0.000000 -2.691617
v 1.088522 0.000000 -2.791517
v 0.829703 0.000000 -2.825591
v 1.829703 0.000000 -1.825591
v 1.795629 -0.129409 -2.049735
v 1.695729 -0.250000 -2.258604
v 1.536810 -0.353553 -2.437963
v 1.329703 -0.433012 -2.575591
v 1.088522 -0.482963 -2.662107
v 0.829703 -0.500000 -2.691617
v 1.795629 -0.224144 -1.955001
v 1.695729 -0.433012 -2.075591
v 1.536810 -0.612372 -2.179145
v 1.329703 -0.750000 -2.258604
v 1.088523 -0.836516 -2.308554
v 0.829703 -0.866025 -2.325591
v 1.795629 -0.258818 -1.825591
v 1.695729 -0.500000 -1.825591
v 1.536810 -0.707106 -1.825591
v 1.329703 -0.866024 -1.825591
v 1.088523 -0.965925 -1.825591
v 0.829703 -0.999999 -1.825591
v -0.829704 1.000000 -1.825591
v -1.088523 0.965925 -1.825591
v -1.329704 0.866025 -1.825591
v -1.536810 0.707107 -1.825591
v -1.695729 0.500000 -1.825591
v -0.829704 0.866025 -2.325591
v -1.088523 0.836516 -2.308554
v -1.329703 0.750000 -2.258604
v -1.536810 0.612372 -2.179145
v -1.695729 0.433012 -2.075592
v -1.795629 0.224144 -1.955001
v -1.829704 0.000000 -1.825591
v -0.829704 0.500000 -2.691617
v -1.088522 0.482963 -2.662107
v -1.329703 0.433012 -2.575591
v -1.536810 0.353553 -2.437963
v -1.695729 0.250000 -2.258604
v -1.795629 0.129409 -2.049735
v -0.829703 0.000000 -2.825591
v -1.088522 0.000000 -2.791517
v -1.329703 0.000000 -2.691617
v -1.536810 0.000000 -2.532698
v -1.695729 0.000000 -2.325591
v -1.795629 0.000000 -2.084411
v -0.829703 -0.500000 -2.691617
v -1.088522 -0.482963 -2.662107
v -1.329703 -0.433012 -2.575591
v -1.536810 -0.353553 -2.437963
v -1.695729 -0.250000 -2.258604
v -1.795629 -0.129410 -2.049735
v -0.829704 -0.866025 -2.325591
v -1.088522 -0.836516 -2.308554
v -1.329703 -0.750000 -2.258604
v -1.536810 -0.612372 -2.179145
v -1.695729 -0.433012 -2.075592
v -1.795629 -0.224144 -1.955001
v -0.829703 -1.000000 -1.825591
v -1.088522 -0.965925 -1.825591
v -1.329703 -0.866025 -1.825591
v -1.536810 -0.707106 -1.825591
v -1.695729 -0.500000 -1.825591
v -1.795629 0.258819 -1.825591
v 1.795630 0.258819 1.825591
v 1.695729 0.500000 1.825591
v 1.536810 0.707107 1.825591
v 1.329703 0.866025 1.825591
v 1.088523 0.965926 1.825591
v 0.829704 1.000000 1.825591
v 1.829704 0.000000 1.825592
v 1.795630 -0.258818 1.825591
v 1.695729 -0.500000 1.825591
v 1.536810 -0.707106 1.825591
v 1.329704 -0.866024 1.825591
v 1.088523 -0.965925 1.825591
v 0.829704 -0.999999 1.825591
v 1.795630 -0.224144 1.955001
v 1.695729 -0.433012 2.075592
v 1.536810 -0.612372 2.179145
v 1.329704 -0.750000 2.258604
v 1.088523 -0.836516 2.308554
v 0.829704 -0.866024 2.325592
v 1.795630 -0.129409 2.049735
v 1.695729 -0.250000 2.258604
v 1.536810 -0.353553 2.437963
v 1.329704 -0.433012 2.575591
v 1.088523 -0.482962 2.662107
v 0.829704 -0.500000 2.691617
v 1.795630 0.000000 2.084410
v 1.695729 0.000000 2.325591
v 1.536810 0.000000 2.532698
v 1.329704 0.000000 2.691617
v 1.088523 0.000000 2.791517
v 0.829704 0.000000 2.825591
v 1.795630 0.129409 2.049735
v 1.695729 0.250000 2.258604
v 1.536810 0.353553 2.437963
v 1.329704 0.433012 2.575591
v 1.088523 0.482963 2.662107
v 0.829704 0.500000 2.691617
v 1.795630 0.224144 1.955001
v 1.695729 0.433012 2.075592
v 1.536810 0.612372 2.179145
v 1.329704 0.750000 2.258604
v 1.088522 0.836516 2.308554
v 0.829704 0.866025 2.325591
v -0.829703 1.000000 1.825591
v -1.088522 0.965925 1.825591
v -1.329703 0.866025 1.825591
v -1.536810 0.707107 1.825591
v -1.695729 0.500000 1.825591
v -1.829703 0.000000 1.825591
v -0.829703 -1.000000 1.825591
v -1.088522 -0.965925 1.825591
v -1.329703 -0.866025 1.825591
v -1.536810 -0.707106 1.825591
v -1.695728 -0.500000 1.825591
v -1.795629 -0.258819 1.825591
v -0.829703 -0.866025 2.325592
v -1.088522 -0.836516 2.308554
v -1.329703 -0.750000 2.258604
v -1.536810 -0.612372 2.179145
v -1.695728 -0.433012 2.075592
v -1.795629 -0.224144 1.955001
v -0.829703 -0.500000 2.691617
v -1.088522 -0.482963 2.662107
v -1.329703 -0.433012 2.575591
v -1.536810 -0.353553 2.437964
v -1.695729 -0.250000 2.258604
v -1.795629 -0.129410 2.049736
v -0.829703 0.000000 2.825591
v -1.088522 0.000000 2.791517
v -1.329703 0.000000 2.691617
v -1.536810 0.000000 2.532698
v -1.695729 0.000000 2.325592
v -1.795629 0.000000 2.084411
v -0.829703 0.500000 2.691617
v -1.088522 0.482963 2.662107
v -1.329703 0.433012 2.575591
v -1.536810 0.353553 2.437963
v -1.695729 0.250000 2.258604
v -1.795629 0.129409 2.049736
v -0.829703 0.866025 2.325591
v -1.088522 0.836516 2.308554
v -1.329703 0.750000 2.258604
v -1.536810 0.612372 2.179144
v -1.695729 0.433012 2.075592
v -1.795629 0.224144 1.955001
v -1.795629 0.258819 1.825591
v -1.795629 -0.255529 -1.828009
vn 0.254250 0.958983 -0.125156
vn 0.492355 0.862972 -0.113346
vn 0.490860 0.754479 -0.435591
vn 0.064486 0.989441 -0.129551
vn 0.253578 0.837703 -0.483627
vn 0.859401 0.506699 -0.068239
vn 0.962523 0.268624 -0.037172
vn 0.856624 0.446791 -0.257942
vn 0.698752 0.709098 -0.094089
vn 0.696432 0.621448 -0.358776
vn 0.064699 0.864193 -0.498947
vn 0.064699 0.498947 -0.864193
vn 0.960326 0.241493 -0.139409
vn 0.960326 0.139409 -0.241493
vn 0.856624 0.257942 -0.446791
vn 0.696432 0.358776 -0.621448
vn 0.490860 0.435591 -0.754479
vn 0.253578 0.483627 -0.837703
vn 0.490860 0.000000 -0.871212
vn 0.253578 0.000000 -0.967284
vn 0.856624 0.000000 -0.515915
vn 0.696432 0.000000 -0.717582
vn 0.490860 -0.435591 -0.754479
vn 0.064699 0.000000 -0.997894
vn 0.253578 -0.483627 -0.837703
vn 0.960326 0.000000 -0.278848
vn 0.856624 -0.257942 -0.446791
vn 0.696432 -0.358776 -0.621448
vn 0.490860 -0.754479 -0.435591
vn 0.064699 -0.498947 -0.864193
vn 0.253578 -0.837703 -0.483627
vn 0.960326 -0.139409 -0.241493
vn 0.960326 -0.241493 -0.139409
vn 0.856624 -0.446791 -0.257942
vn 0.696432 -0.621448 -0.358776
vn 0.698752 -0.709098 -0.094089
vn 0.492355 -0.862972 -0.113346
vn 0.064699 -0.864193 -0.498947
vn 0.254250 -0.958983 -0.125156
vn 0.859401 -0.506699 -0.068239
vn 0.999023 0.000000 -0.043611
vn 0.962523 -0.268624 -0.037172
vn -0.859401 0.506699 -0.068239
vn -0.698752 0.709098 -0.094089
vn -0.856624 0.446791 -0.257942
vn -0.254250 0.958983 -0.125156
vn -0.064516 0.989441 -0.129551
vn -0.253578 0.837703 -0.483627
vn -0.492355 0.862972 -0.113346
vn -0.490860 0.754479 -0.435591
vn -0.696432 0.621448 -0.358776
vn -0.856624 0.257942 -0.446791
vn -0.960326 0.241493 -0.139409
vn -0.960326 0.139409 -0.241493
vn -0.064699 0.864193 -0.498947
vn -0.253578 0.483627 -0.837703
vn -0.490860 0.435591 -0.754479
vn -0.696432 0.358776 -0.621448
vn -0.856624 0.000000 -0.515915
vn -0.960326 0.000000 -0.278848
vn -0.064699 0.498947 -0.864193
vn -0.253578 0.000000 -0.967284
vn -0.490860 0.000000 -0.871212
vn -0.696432 0.000000 -0.717582
vn -0.696432 -0.358776 -0.621448
vn -0.856624 -0.257942 -0.446791
vn -0.960326 -0.139409 -0.241493
vn -0.064699 0.000000 -0.997894
vn -0.253578 -0.483627 -0.837703
vn -0.490860 -0.435591 -0.754479
vn -0.696432 -0.621448 -0.358776
vn -0.856624 -0.446791 -0.257942
vn -0.960418 -0.242042 -0.137822
vn -0.064699 -0.498947 -0.864193
vn -0.253578 -0.837703 -0.483627
vn -0.490860 -0.754479 -0.435591
vn -0.698752 -0.709098 -0.094089
vn -0.860164 -0.505478 -0.067507
vn -0.064699 -0.864193 -0.498947
vn -0.254250 -0.958983 -0.125156
vn -0.492355 -0.862972 -0.113346
vn -0.962523 0.268624 -0.037172
vn -0.999054 -0.000519 -0.043367
vn 0.064486 -0.989441 -0.129551
vn -0.064516 -0.989441 -0.129551
vn 0.492355 -0.862972 0.113346
vn 0.698752 -0.709098 0.094089
vn 0.696432 -0.621448 0.358776
vn 0.254250 -0.958983 0.125156
vn 0.490860 -0.754479 0.435591
vn 0.064486 -0.989441 0.129551
vn 0.253578 -0.837703 0.483627
vn 0.859401 -0.506699 0.068239
vn 0.962523 -0.268624 0.037172
vn 0.960326 -0.241493 0.139409
vn 0.856624 -0.446791 0.257942
vn 0.696432 -0.358776 0.621448
vn 0.490860 -0.435591 0.754479
vn 0.064699 -0.864193 0.498947
vn 0.253578 -0.483627 0.837703
vn 0.960326 -0.139409 0.241493
vn 0.856624 -0.257942 0.446791
vn 0.856624 0.000000 0.515915
vn 0.696432 0.000000 0.717582
vn 0.253578 0.000000 0.967284
vn 0.064699 -0.498947 0.864193
vn 0.960326 0.000000 0.278848
vn 0.856624 0.257942 0.446791
vn 0.490860 0.000000 0.871212
vn 0.696432 0.358776 0.621448
vn 0.490860 0.435591 0.754479
vn 0.064699 0.000000 0.997894
vn 0.253578 0.483627 0.837703
vn 0.960326 0.139409 0.241493
vn 0.856624 0.446791 0.257942
vn 0.696432 0.621448 0.358776
vn 0.490860 0.754479 0.435591
vn 0.064699 0.498947 0.864193
vn 0.253578 0.837703 0.483627
vn 0.999023 0.000000 0.043611
vn 0.960326 0.241493 0.139409
vn 0.962523 0.268624 0.037172
vn 0.859401 0.506699 0.068239
vn 0.698752 0.709098 0.094089
vn 0.492355 0.862972 0.113346
vn 0.064699 0.864193 0.498947
vn 0.254250 0.958983 0.125156
vn -0.492355 -0.862972 0.113346
vn -0.254250 -0.958983 0.125156
vn -0.490860 -0.754479 0.435591
vn -0.698752 -0.709098 0.094089
vn -0.696432 -0.621448 0.358776
vn -0.859432 -0.506668 0.068148
vn -0.856624 -0.446791 0.257942
vn -0.962493 -0.268654 0.037049
vn -0.960326 -0.241493 0.139409
vn -0.064516 -0.989441 0.129551
vn -0.064699 -0.864193 0.498947
vn -0.253578 -0.837703 0.483627
vn -0.490860 -0.435591 0.754479
vn -0.696432 -0.358776 0.621448
vn -0.960326 -0.139409 0.241493
vn -0.253578 -0.483627 0.837703
vn -0.490860 0.000000 0.871212
vn -0.696432 0.000000 0.717582
vn -0.856624 -0.257942 0.446791
vn -0.856624 0.000000 0.515915
vn -0.064699 -0.498947 0.864193
vn -0.253578 0.000000 0.967284
vn -0.064699 0.000000 0.997894
vn -0.253578 0.483627 0.837703
vn -0.490860 0.435591 0.754479
vn -0.696432 0.358776 0.621448
vn -0.856624 0.257942 0.446791
vn -0.960326 0.000000 0.278848
vn -0.960326 0.139409 0.241493
vn -0.064699 0.498947 0.864193
vn -0.253578 0.837703 0.483627
vn -0.490860 0.754479 0.435591
vn -0.696432 0.621448 0.358776
vn -0.856624 0.446791 0.257942
vn -0.999023 0.000000 0.043580
vn -0.064699 0.864193 0.498947
vn 0.064486 0.989441 0.129551
vn -0.064516 0.989441 0.129551
vn -0.960326 0.241493 0.139409
vn -0.254250 0.958983 0.125156
vn -0.492355 0.862972 0.113346
vn -0.698752 0.709098 0.094089
vn -0.859401 0.506699 0.068239
vn -0.962523 0.268624 0.037172
vn -0.963256 -0.266366 -0.034120
usemtl None
s 1
f 5//1 4//2 10//3
f 6//4 5//1 11//5
f 2//6 1//7 8//8
f 3//9 2//6 8//8
f 4//2 3//9 9//10
f 12//11 11//5 18//12
f 8//8 7//13 13//14
f 9//10 8//8 14//15
f 10//3 9//10 15//16
f 11//5 10//3 16//17
f 17//18 16//17 22//19
f 18//12 17//18 23//20
f 14//15 13//14 20//21
f 15//16 14//15 21//22
f 16//17 15//16 21//22
f 23//20 22//19 29//23
f 24//24 23//20 30//25
f 20//21 19//26 27//27
f 21//22 20//21 28//28
f 22//19 21//22 28//28
f 30//25 29//23 35//29
f 31//30 30//25 36//31
f 27//27 26//32 32//33
f 28//28 27//27 33//34
f 29//23 28//28 34//35
f 35//29 34//35 40//36
f 36//31 35//29 41//37
f 37//38 36//31 42//39
f 33//34 32//33 39//40
f 34//35 33//34 40//36
f 1//7 25//41 7//13
f 7//13 25//41 13//14
f 13//14 25//41 19//26
f 19//26 25//41 26//32
f 26//32 25//41 32//33
f 32//33 25//41 38//42
f 48//43 47//44 53//45
f 45//46 44//47 50//48
f 46//49 45//46 51//50
f 47//44 46//49 52//51
f 53//45 52//51 60//52
f 54//53 53//45 61//54
f 50//48 49//55 57//56
f 51//50 50//48 58//57
f 52//51 51//50 59//58
f 60//52 59//58 66//59
f 61//54 60//52 67//60
f 57//56 56//61 63//62
f 58//57 57//56 64//63
f 59//58 58//57 65//64
f 65//64 64//63 71//65
f 66//59 65//64 72//66
f 67//60 66//59 73//67
f 63//62 62//68 69//69
f 64//63 63//62 70//70
f 71//65 70//70 77//71
f 72//66 71//65 78//72
f 73//67 72//66 79//73
f 69//69 68//74 75//75
f 70//70 69//69 76//76
f 77//71 76//76 83//77
f 78//72 77//71 84//78
f 75//75 74//79 81//80
f 76//76 75//75 82//81
f 85//82 48//43 54//53
f 55//83 85//82 54//53
f 55//83 54//53 61//54
f 55//83 61//54 67//60
f 55//83 67//60 73//67
f 55//83 73//67 79//73
f 12//11 49//55 44//47
f 18//12 56//61 49//55
f 24//24 62//68 56//61
f 31//30 68//74 62//68
f 37//38 74//79 68//74
f 43//84 80//85 74//79
f 96//86 95//87 101//88
f 97//89 96//86 102//90
f 98//91 97//89 103//92
f 94//93 93//94 99//95
f 95//87 94//93 100//96
f 102//90 101//88 107//97
f 103//92 102//90 108//98
f 104//99 103//92 109//100
f 100//96 99//95 105//101
f 101//88 100//96 107//97
f 107//97 106//102 112//103
f 108//98 107//97 113//104
f 109//100 108//98 115//105
f 110//106 109//100 115//105
f 106//102 105//101 111//107
f 113//104 112//103 118//108
f 114//109 113//104 119//110
f 115//105 114//109 120//111
f 116//112 115//105 121//113
f 112//103 111//107 117//114
f 119//110 118//108 124//115
f 120//111 119//110 125//116
f 121//113 120//111 126//117
f 122//118 121//113 127//119
f 118//108 117//114 124//115
f 93//94 92//120 99//95
f 99//95 92//120 105//101
f 105//101 92//120 111//107
f 111//107 92//120 117//114
f 117//114 92//120 123//121
f 124//115 123//121 86//122
f 125//116 124//115 87//123
f 126//117 125//116 88//124
f 127//119 126//117 89//125
f 128//126 127//119 90//127
f 123//121 92//120 86//122
f 137//128 136//129 143//130
f 138//131 137//128 144//132
f 139//133 138//131 145//134
f 140//135 139//133 146//136
f 136//129 135//137 141//138
f 143//130 142//139 149//140
f 144//132 143//130 150//141
f 145//134 144//132 150//141
f 146//136 145//134 152//142
f 142//139 141//138 148//143
f 149//140 148//143 155//144
f 150//141 149//140 156//145
f 151//146 150//141 157//147
f 152//142 151//146 157//147
f 148//143 147//148 154//149
f 154//149 153//150 160//151
f 155//144 154//149 161//152
f 156//145 155//144 162//153
f 157//147 156//145 163//154
f 158//155 157//147 164//156
f 160//151 159//157 166//158
f 161//152 160//151 167//159
f 162//153 161//152 168//160
f 163//154 162//153 169//161
f 164//156 163//154 169//161
f 104//99 141//138 135//137
f 134//162 140//135 146//136
f 110//106 147//148 104//99
f 134//162 146//136 152//142
f 116//112 153//150 147//148
f 122//118 159//157 153//150
f 134//162 152//142 158//155
f 128//126 165//163 159//157
f 134//162 158//155 164//156
f 91//164 129//165 165//163
f 134//162 164//156 170//166
f 166//158 165//163 130//167
f 167//159 166//158 131//168
f 168//160 167//159 132//169
f 169//161 168//160 132//169
f 170//166 169//161 133//170
f 134//162 170//166 171//171
f 78//72 84//78 79//73
f 79//73 172//172 55//83
f 43//84 98//91 135//137
f 80//85 135//137 81//80
f 81//80 136//129 82//81
f 82//81 137//128 83//77
f 83//77 138//131 84//78
f 84//78 139//133 172//172
f 172//172 140//135 134//162
f 171//171 85//82 134//162
f 133//170 48//43 171//171
f 132//169 47//44 133//170
f 131//168 46//49 132//169
f 130//167 45//46 131//168
f 129//165 44//47 130//167
f 91//164 6//4 44//47
f 90//127 5//1 6//4
f 89//125 4//2 5//1
f 88//124 3//9 4//2
f 87//123 2//6 3//9
f 86//122 1//7 2//6
f 92//120 25//41 1//7
f 25//41 92//120 93//94
f 38//42 93//94 94//93
f 39//40 94//93 95//87
f 40//36 95//87 96//86
f 41//37 96//86 97//89
f 42//39 97//89 98//91
f 11//5 5//1 10//3
f 12//11 6//4 11//5
f 1//7 7//13 8//8
f 9//10 3//9 8//8
f 10//3 4//2 9//10
f 11//5 17//18 18//12
f 14//15 8//8 13//14
f 15//16 9//10 14//15
f 16//17 10//3 15//16
f 17//18 11//5 16//17
f 23//20 17//18 22//19
f 24//24 18//12 23//20
f 13//14 19//26 20//21
f 14//15 20//21 21//22
f 22//19 16//17 21//22
f 30//25 23//20 29//23
f 31//30 24//24 30//25
f 19//26 26//32 27//27
f 20//21 27//27 28//28
f 29//23 22//19 28//28
f 36//31 30//25 35//29
f 37//38 31//30 36//31
f 33//34 27//27 32//33
f 34//35 28//28 33//34
f 35//29 29//23 34//35
f 41//37 35//29 40//36
f 42//39 36//31 41//37
f 43//84 37//38 42//39
f 32//33 38//42 39//40
f 33//34 39//40 40//36
f 47//44 52//51 53//45
f 44//47 49//55 50//48
f 45//46 50//48 51//50
f 46//49 51//50 52//51
f 52//51 59//58 60//52
f 53//45 60//52 61//54
f 49//55 56//61 57//56
f 50//48 57//56 58//57
f 51//50 58//57 59//58
f 59//58 65//64 66//59
f 60//52 66//59 67//60
f 56//61 62//68 63//62
f 57//56 63//62 64//63
f 58//57 64//63 65//64
f 64//63 70//70 71//65
f 65//64 71//65 72//66
f 66//59 72//66 73//67
f 62//68 68//74 69//69
f 63//62 69//69 70//70
f 70//70 76//76 77//71
f 71//65 77//71 78//72
f 72//66 78//72 79//73
f 68//74 74//79 75//75
f 69//69 75//75 76//76
f 76//76 82//81 83//77
f 77//71 83//77 84//78
f 74//79 80//85 81//80
f 75//75 81//80 82//81
f 48//43 53//45 54//53
f 6//4 12//11 44//47
f 12//11 18//12 49//55
f 18//12 24//24 56//61
f 24//24 31//30 62//68
f 31//30 37//38 68//74
f 37//38 43//84 74//79
f 102//90 96//86 101//88
f 103//92 97//89 102//90
f 104//99 98//91 103//92
f 100//96 94//93 99//95
f 101//88 95//87 100//96
f 108//98 102//90 107//97
f 109//100 103//92 108//98
f 110//106 104//99 109//100
f 106//102 100//96 105//101
f 100//96 106//102 107//97
f 113//104 107//97 112//103
f 114//109 108//98 113//104
f 108//98 114//109 115//105
f 116//112 110//106 115//105
f 112//103 106//102 111//107
f 119//110 113//104 118//108
f 120//111 114//109 119//110
f 121//113 115//105 120//111
f 122//118 116//112 121//113
f 118//108 112//103 117//114
f 125//116 119//110 124//115
f 126//117 120//111 125//116
f 127//119 121//113 126//117
f 128//126 122//118 127//119
f 117//114 123//121 124//115
f 87//123 124//115 86//122
f 88//124 125//116 87//123
f 89//125 126//117 88//124
f 90//127 127//119 89//125
f 91//164 128//126 90//127
f 136//129 142//139 143//130
f 137//128 143//130 144//132
f 138//131 144//132 145//134
f 139//133 145//134 146//136
f 142//139 136//129 141//138
f 142//139 148//143 149//140
f 143//130 149//140 150//141
f 151//146 145//134 150//141
f 145//134 151//146 152//142
f 141//138 147//148 148//143
f 148//143 154//149 155//144
f 149//140 155//144 156//145
f 150//141 156//145 157//147
f 158//155 152//142 157//147
f 147//148 153//150 154//149
f 153//150 159//157 160//151
f 154//149 160//151 161//152
f 155//144 161//152 162//153
f 156//145 162//153 163//154
f 157//147 163//154 164//156
f 159//157 165//163 166//158
f 160//151 166//158 167//159
f 161//152 167//159 168//160
f 162//153 168//160 169//161
f 170//166 164//156 169//161
f 98//91 104//99 135//137
f 147//148 141//138 104//99
f 110//106 116//112 147//148
f 116//112 122//118 153//150
f 122//118 128//126 159//157
f 128//126 91//164 165//163
f 165//163 129//165 130//167
f 166//158 130//167 131//168
f 167//159 131//168 132//169
f 133//170 169//161 132//169
f 171//171 170//166 133//170
f 84//78 172//172 79//73
f 80//85 43//84 135//137
f 135//137 136//129 81//80
f 136//129 137//128 82//81
f 137//128 138//131 83//77
f 138//131 139//133 84//78
f 139//133 140//135 172//172
f 55//83 172//172 134//162
f 85//82 55//83 134//162
f 48//43 85//82 171//171
f 47//44 48//43 133//170
f 46//49 47//44 132//169
f 45//46 46//49 131//168
f 44//47 45//46 130//167
f 129//165 91//164 44//47
f 91//164 90//127 6//4
f 90//127 89//125 5//1
f 89//125 88//124 4//2
f 88//124 87//123 3//9
f 87//123 86//122 2//6
f 86//122 92//120 1//7
f 38//42 25//41 93//94
f 39//40 38//42 94//93
f 40//36 39//40 95//87
f 41//37 40//36 96//86
f 42//39 41//37 97//89
f 43//84 42//39 98//91
